<svg width="33" height="33" fill="none" xmlns="http://www.w3.org/2000/svg"><mask id="a" maskUnits="userSpaceOnUse" x="4" y="8" width="25" height="24"><g clip-path="url(#clip0)" fill="#C4C4C4" fill-opacity=".4"><path d="M16.229 19.56c1.588 0 2.963-.569 4.087-1.693 1.124-1.123 1.694-2.498 1.694-4.087 0-1.588-.57-2.963-1.694-4.087C19.192 8.57 17.816 8 16.229 8c-1.589 0-2.963.57-4.087 1.693-1.124 1.124-1.694 2.5-1.694 4.087 0 1.589.57 2.964 1.694 4.088 1.124 1.123 2.499 1.693 4.087 1.693zM26.344 26.455a14.274 14.274 0 00-.195-1.517 11.966 11.966 0 00-.373-1.524 7.532 7.532 0 00-.626-1.422 5.364 5.364 0 00-.945-1.232 4.167 4.167 0 00-1.358-.853 4.693 4.693 0 00-1.734-.314c-.244 0-.481.1-.939.398-.282.184-.611.397-.979.631-.314.2-.74.389-1.266.558a5.027 5.027 0 01-1.549.25 5.033 5.033 0 01-1.549-.25c-.525-.17-.951-.357-1.265-.557-.365-.233-.694-.446-.98-.632-.457-.298-.694-.398-.939-.398-.624 0-1.207.105-1.733.314a4.164 4.164 0 00-1.358.853 5.367 5.367 0 00-.945 1.232c-.26.458-.471.937-.627 1.422-.15.469-.275.981-.372 1.524a14.225 14.225 0 00-.195 1.517c-.032.46-.048.936-.048 1.418 0 1.252.398 2.267 1.184 3.014.775.739 1.802 1.113 3.05 1.113h11.556c1.248 0 2.274-.374 3.05-1.113.785-.747 1.183-1.761 1.183-3.015 0-.483-.016-.96-.048-1.417z"/></g></mask><g mask="url(#a)"><circle cx="16.4" cy="16.4" fill="#fff" r="14.4"/></g><circle cx="16.4" cy="16.4" r="14.4" fill="#fff" fill-opacity=".3"/><defs><clipPath id="clip0"><path fill="#fff" d="M4.4 8h24v24h-24z"/></clipPath></defs></svg>